<svg id="svg" version="1.1" xmlns="http://www.w3.org/2000/svg" x="0px" y="0px" width="85px" height="85px" viewBox="0 0 738 738" enable-background="new 0 0 80 80" xml:space="preserve">

<path d="M0,0 L738,0 L738,738 L0,738 Z " transform="translate(0,0)" style="fill: #DCDFE2;"/>
<path d="M0,0 L294,0 L294,736 L-188,736 L-188,733 L-193,733 L-195,730 L-204,729 L-204,724 L-222,725 L-222,723 L-220,723 L-220,720 L-216,721 L-215,722 L-200,723 L-198,724 L-198,726 L-180,727 L-170,729 L-148,730 L-148,732 L-124,733 L-26,733 L-25,713 L-24,669 L-24,653 L-25,644 L-24,629 L-24,342 L-23,254 L-21,253 L-19,292 L-19,390 L-20,395 L-20,404 L-18,405 L-18,205 L-17,197 L-16,197 L-16,429 L-17,432 L-15,432 L-15,660 L-14,701 L-14,733 L-5,733 L-3,729 L-2,727 L1,727 L1,725 L9,718 L14,713 L17,713 L19,709 L21,709 L23,705 L28,699 L36,693 L39,693 L39,690 L44,685 L48,681 L50,681 L52,677 L61,670 L63,667 L65,667 L66,367 L68,363 L230,363 L230,357 L226,355 L218,349 L218,347 L216,347 L210,340 L201,334 L201,331 L198,331 L197,326 L194,323 L186,320 L184,318 L183,311 L179,309 L179,306 L177,306 L177,304 L172,303 L172,297 L167,298 L156,292 L70,291 L70,109 L72,109 L73,102 L76,95 L78,92 L92,92 L96,93 L110,92 L161,92 L172,93 L180,92 L181,94 L185,92 L189,93 L194,90 L196,90 L196,88 L199,88 L199,29 L198,16 L196,15 L196,12 L185,12 L185,10 L188,10 L188,7 L178,8 L175,6 L171,8 L164,9 L158,8 L143,9 L141,8 L124,7 L100,7 L90,6 L56,7 L53,6 L32,6 L32,4 L22,4 L18,5 L18,7 L15,8 L5,8 L0,5 Z M178,6 Z M73,99 Z " transform="translate(444,0)" style="fill: #EAEBEB;"/>
<path d="M0,0 L209,0 L210,1 L210,718 L114,718 L93,717 L90,716 L90,714 L68,714 L58,712 L40,710 L40,708 L23,707 L18,704 L10,703 L10,701 L-2,699 L-18,695 L-20,693 L-27,691 L-30,689 L-38,687 L-38,684 L-44,683 L-48,681 L-54,680 L-54,678 L-63,677 L-63,675 L-65,675 L-65,673 L-70,671 L-81,664 L-90,658 L-88,657 L-80,661 L-79,663 L-72,666 L-71,668 L-63,672 L-62,674 L-52,677 L-40,682 L-26,687 L-24,689 L-14,690 L-14,692 L-4,693 L2,694 L2,697 L16,697 L16,701 L30,703 L33,704 L45,705 L45,707 L52,708 L70,709 L70,711 L95,712 L114,714 L114,716 L209,716 L208,5 L204,5 L203,8 L197,11 L194,11 L192,15 L187,17 L184,23 L173,31 L172,34 L168,35 L168,38 L162,39 L160,43 L158,45 L155,45 L154,49 L150,51 L146,57 L140,61 L138,61 L138,63 L134,64 L132,68 L130,69 L129,278 L129,643 L128,647 L104,647 L71,644 L64,643 L64,641 L56,641 L56,639 L50,639 L48,638 L34,637 L34,634 L25,634 L20,631 L13,628 L11,626 L6,625 L6,623 L0,622 L-2,621 L-2,619 L-7,617 L-17,615 L-22,611 L-28,608 L-28,606 L-35,605 L-38,602 L-38,600 L-43,598 L-46,597 L-48,594 L-53,592 L-54,588 L-58,586 L-66,581 L-73,578 L-76,575 L-76,573 L-78,573 L-82,569 L-86,567 L-86,565 L-90,563 L-93,559 L-93,557 L-98,556 L-101,551 L-101,549 L-105,547 L-107,541 L-110,540 L-114,534 L-116,533 L-117,530 L-120,529 L-124,521 L-124,517 L-126,517 L-128,512 L-131,511 L-132,509 L-133,499 L-137,493 L-144,465 L-144,429 L-142,417 L-140,417 L-139,407 L-137,402 L-133,399 L-131,389 L-128,389 L-126,383 L-121,373 L-116,373 L-115,369 L-110,360 L-106,357 L-104,353 L-99,348 L-93,345 L-92,341 L-84,335 L-80,331 L-70,329 L-70,325 L-67,323 L-71,324 L-72,325 L-79,326 L-84,327 L-81,323 L-70,318 L-59,315 L-54,312 L-51,309 L-44,307 L-44,305 L-28,300 L-24,295 L-14,294 L-12,292 L-8,292 L-8,290 L-2,286 L13,284 L28,282 L46,281 L51,279 L75,278 L125,278 L125,75 L126,71 L2,71 L0,70 Z " transform="translate(206,16)" style="fill: #049BDB;"/>
<path d="M0,0 L3,1 L3,712 L-92,712 L-92,710 L-111,709 L-132,708 L-136,707 L-136,705 L-154,705 L-161,703 L-161,701 L-173,701 L-180,699 L-190,697 L-190,693 L-204,693 L-204,690 L-215,689 L-220,688 L-220,686 L-230,686 L-232,684 L-246,679 L-252,676 L-258,674 L-268,671 L-272,667 L-278,664 L-278,662 L-285,660 L-286,657 L-290,656 L-300,652 L-305,649 L-305,647 L-309,645 L-316,639 L-324,632 L-328,628 L-328,626 L-334,624 L-338,620 L-338,617 L-342,616 L-346,611 L-346,609 L-348,609 L-353,603 L-353,601 L-356,601 L-357,595 L-361,593 L-366,585 L-366,582 L-370,582 L-372,577 L-375,575 L-376,572 L-378,571 L-380,565 L-385,555 L-386,545 L-388,545 L-390,541 L-390,537 L-392,537 L-395,526 L-397,521 L-399,509 L-400,493 L-400,470 L-399,463 L-398,462 L-396,447 L-394,447 L-393,435 L-386,418 L-383,411 L-382,407 L-380,406 L-375,396 L-372,390 L-368,387 L-366,387 L-364,381 L-360,379 L-360,377 L-358,377 L-358,375 L-353,371 L-351,366 L-348,363 L-346,363 L-344,359 L-340,357 L-340,355 L-332,349 L-329,348 L-324,342 L-317,337 L-310,335 L-306,332 L-304,332 L-303,329 L-296,327 L-294,323 L-286,322 L-285,321 L-278,320 L-276,318 L-272,319 L-276,321 L-276,325 L-286,328 L-290,332 L-296,337 L-298,337 L-299,342 L-305,345 L-310,350 L-313,355 L-316,356 L-317,360 L-322,369 L-327,369 L-330,378 L-333,383 L-334,385 L-337,385 L-338,395 L-341,398 L-343,398 L-345,407 L-346,413 L-348,413 L-348,421 L-349,425 L-349,461 L-342,489 L-338,495 L-337,507 L-333,508 L-332,513 L-330,513 L-327,521 L-326,525 L-322,526 L-322,529 L-319,530 L-315,536 L-312,539 L-309,544 L-306,547 L-303,552 L-299,553 L-295,559 L-292,561 L-292,563 L-286,565 L-284,569 L-282,569 L-278,574 L-271,577 L-260,584 L-258,588 L-253,590 L-252,593 L-247,594 L-244,596 L-244,598 L-241,599 L-241,601 L-234,602 L-234,604 L-228,606 L-223,610 L-213,612 L-208,615 L-208,617 L-200,619 L-200,621 L-195,621 L-192,624 L-182,628 L-181,629 L-172,630 L-172,633 L-158,633 L-150,635 L-150,637 L-142,637 L-142,639 L-126,640 L-102,642 L-78,643 L-78,274 L-77,65 L-70,59 L-68,59 L-68,57 L-62,53 L-60,53 L-58,49 L-55,45 L-52,45 L-51,41 L-46,38 L-42,34 L-38,34 L-38,31 L-34,30 L-33,26 L-22,18 L-19,12 L-13,9 L-12,7 L-3,3 Z " transform="translate(412,20)" style="fill: #2B277D;"/><path d="M0,0 L206,0 L207,1 L207,69 L206,71 L78,72 L78,280 L83,279 L163,279 L171,285 L174,287 L174,289 L180,291 L186,295 L190,299 L190,301 L193,301 L198,306 L203,308 L208,313 L208,315 L211,315 L212,318 L221,324 L226,329 L226,331 L228,331 L232,335 L240,341 L240,347 L78,347 L77,351 L76,649 L71,655 L61,663 L58,666 L55,669 L51,674 L49,674 L49,677 L43,680 L36,686 L31,693 L27,697 L22,700 L15,706 L13,709 L11,709 L11,711 L6,713 L4,715 L-2,715 L-2,2 Z " transform="translate(434,16)" style="fill: #2D3A88;"/><path d="M0,0 L34,0 L35,1 L35,281 L26,281 L21,280 L20,281 L-8,281 L-14,279 L-26,278 L-26,276 L-32,276 L-32,273 L-40,272 L-50,270 L-57,268 L-57,266 L-66,266 L-66,263 L-79,260 L-80,257 L-90,254 L-100,247 L-103,242 L-109,237 L-115,234 L-120,228 L-120,226 L-124,224 L-127,221 L-130,220 L-134,214 L-136,212 L-137,208 L-142,204 L-145,198 L-145,196 L-149,194 L-150,190 L-152,190 L-152,188 L-154,188 L-156,178 L-160,171 L-160,162 L-162,162 L-165,151 L-167,140 L-167,113 L-163,100 L-159,90 L-157,82 L-155,78 L-153,77 L-147,65 L-142,58 L-139,58 L-138,55 L-135,53 L-133,47 L-123,39 L-114,36 L-110,32 L-103,29 L-96,25 L-94,25 L-94,23 L-92,22 L-82,21 L-79,19 L-70,16 L-51,10 L-50,8 L-40,8 L-40,6 L-32,3 Z " transform="translate(296,377)" style="fill: #E1E6E6;"/><path d="M0,0 L209,0 L210,1 L210,718 L114,718 L93,717 L90,716 L90,714 L68,714 L58,712 L40,710 L40,708 L23,707 L18,704 L10,703 L10,701 L-2,699 L-18,695 L-20,693 L-27,691 L-30,689 L-38,687 L-38,684 L-44,683 L-48,681 L-54,680 L-54,678 L-63,677 L-63,675 L-65,675 L-65,673 L-70,671 L-81,664 L-90,658 L-88,657 L-80,661 L-79,663 L-72,666 L-71,668 L-63,672 L-62,674 L-52,677 L-40,682 L-26,687 L-24,689 L-14,690 L-14,692 L-4,693 L2,694 L2,697 L16,697 L16,701 L30,703 L33,704 L45,705 L45,707 L52,708 L70,709 L70,711 L95,712 L114,714 L114,716 L209,716 L208,5 L204,5 L203,8 L197,11 L194,11 L192,15 L187,17 L184,23 L173,31 L172,34 L168,35 L168,38 L162,39 L160,43 L158,45 L155,45 L154,49 L150,51 L146,57 L140,61 L138,61 L138,63 L134,64 L132,68 L130,69 L129,278 L129,643 L128,647 L104,647 L71,644 L64,643 L64,641 L56,641 L56,639 L50,639 L48,638 L34,637 L34,634 L25,634 L20,631 L13,628 L11,626 L6,625 L6,623 L0,622 L-2,621 L-2,619 L-7,617 L-17,615 L-22,611 L-28,608 L-28,606 L-35,605 L-38,602 L-38,600 L-43,598 L-46,597 L-48,594 L-53,592 L-50,591 L-50,583 L-53,582 L-53,580 L-55,580 L-55,575 L-60,570 L-61,558 L-66,556 L-68,552 L-70,552 L-71,554 L-71,550 L-74,549 L-76,538 L-78,536 L-82,520 L-82,517 L-85,517 L-85,504 L-86,500 L-86,489 L-87,469 L-87,467 L-85,467 L-86,464 L-85,460 L-83,459 L-80,453 L-78,453 L-77,447 L-78,439 L-78,434 L-71,428 L-68,421 L-65,416 L-63,415 L-60,410 L-56,408 L-56,405 L-53,405 L-52,399 L-48,398 L-46,399 L-47,396 L-46,393 L-37,393 L-32,390 L-27,388 L-26,380 L-21,374 L-19,373 L-2,371 L2,370 L2,367 L6,365 L14,365 L17,364 L17,362 L24,361 L30,359 L34,360 L34,358 L52,356 L59,354 L60,352 L70,351 L73,349 L83,349 L88,350 L89,348 L90,349 L110,351 L110,349 L116,348 L116,344 L118,344 L119,341 L119,333 L122,333 L121,317 L119,316 L120,309 L122,309 L122,293 L119,293 L117,290 L110,291 L106,292 L107,295 L104,295 L100,291 L100,289 L96,291 L90,290 L88,286 L46,290 L34,292 L18,294 L16,295 L14,299 L6,302 L-5,303 L-14,306 L-14,308 L-22,311 L-28,311 L-28,315 L-34,318 L-40,321 L-40,319 L-44,321 L-47,326 L-57,328 L-60,333 L-62,333 L-62,335 L-69,337 L-70,340 L-75,342 L-83,340 L-84,343 L-86,342 L-86,341 L-91,345 L-92,341 L-84,335 L-80,331 L-70,329 L-70,325 L-67,323 L-71,324 L-72,325 L-79,326 L-84,327 L-81,323 L-70,318 L-59,315 L-54,312 L-51,309 L-44,307 L-44,305 L-28,300 L-24,295 L-14,294 L-12,292 L-8,292 L-8,290 L-2,286 L13,284 L28,282 L46,281 L51,279 L75,278 L125,278 L125,75 L126,71 L2,71 L0,70 Z M120,314 Z M90,361 L58,364 L50,367 L50,369 L40,369 L37,372 L20,377 L10,381 L8,382 L-2,383 L-4,384 L-4,386 L-9,388 L-14,391 L-22,394 L-25,398 L-34,401 L-40,405 L-44,409 L-46,415 L-49,417 L-49,419 L-53,420 L-57,426 L-63,438 L-66,441 L-68,445 L-70,453 L-73,461 L-77,474 L-77,501 L-73,521 L-72,523 L-70,523 L-70,532 L-65,541 L-64,549 L-62,549 L-62,551 L-60,551 L-58,556 L-55,557 L-53,563 L-49,568 L-47,569 L-45,574 L-41,579 L-40,581 L-35,584 L-32,587 L-30,587 L-28,592 L-22,597 L-17,600 L-11,605 L-8,610 L2,616 L10,618 L11,621 L24,624 L24,627 L33,627 L33,629 L40,631 L50,633 L58,634 L58,637 L64,637 L64,639 L76,640 L82,642 L110,642 L114,641 L116,642 L125,642 L125,362 L124,361 Z M104,296 Z " transform="translate(206,16)" style="fill: #2F9BCD;"/><path d="M0,0 L2,1 L-1,4 L-3,9 L-6,12 L-8,12 L-8,14 L-10,14 L-10,16 L-13,18 L-16,24 L-22,28 L-25,35 L-30,44 L-32,44 L-33,51 L-40,67 L-42,72 L-44,84 L-46,84 L-46,92 L-47,99 L-48,100 L-49,107 L-49,130 L-48,146 L-45,162 L-42,171 L-42,174 L-40,174 L-38,182 L-36,182 L-33,194 L-29,202 L-28,203 L-28,208 L-25,209 L-24,212 L-20,215 L-20,219 L-16,219 L-10,230 L-6,234 L-6,238 L-3,238 L2,244 L2,246 L4,246 L9,253 L12,254 L15,259 L20,262 L25,267 L30,271 L34,275 L42,282 L45,284 L45,286 L49,287 L63,296 L79,306 L79,308 L88,310 L90,311 L90,313 L96,313 L106,317 L106,320 L116,322 L118,324 L125,326 L129,328 L149,332 L154,334 L154,336 L162,336 L162,340 L160,340 L160,342 L167,341 L178,341 L178,346 L187,346 L189,350 L194,350 L194,353 L676,353 L676,355 L-62,355 L-62,73 L-58,72 L-54,72 L-53,79 L-54,92 L-52,92 L-52,88 L-50,87 L-48,74 L-46,74 L-45,70 L-43,70 L-42,65 L-39,57 L-35,48 L-33,43 L-31,42 L-30,33 L-26,32 L-23,26 L-21,25 L-19,19 L-17,19 L-16,16 L-13,15 L-12,8 L-8,8 L-8,6 Z " transform="translate(62,383)" style="fill: #D1D2D5;"/></svg>